<svg width="96" height="96" viewBox="0 0 96 96" fill="none" xmlns="http://www.w3.org/2000/svg">
<path d="M86 31.7193L55.0265 27.6113L49.5775 67.5498L80.6083 71.7148L84.1645 45.2413L86 31.7193Z" fill="#FF7381"/>
<path d="M86 31.7193L55.0265 27.6113L49.5775 67.5498L80.6083 71.7148L84.1645 45.2413L86 31.7193Z" fill="#FF7381"/>
<path d="M51.9862 51.2305C54.7394 49.0624 57.722 48.1496 60.5326 48.7772C62.6548 49.2907 64.605 50.6029 66.7846 51.0594C68.6775 51.4587 70.685 51.1735 72.5778 49.9753C74.9295 48.4919 76.9944 45.8674 79.2314 43.8704C80.9521 42.387 82.7876 41.303 84.623 40.7324" stroke="#CC4659" stroke-width="0.348623" stroke-miterlimit="10"/>
<path d="M82.6152 56.709C81.6401 56.4238 80.6077 56.3096 79.5752 56.4808C77.453 56.7661 75.5602 58.1354 74.5277 60.0182C74.1262 60.7599 73.8394 61.6158 73.6673 62.4145C73.5526 62.9851 73.3806 63.6127 72.8643 63.898C72.5202 64.1262 72.0613 64.0691 71.6024 64.0121C68.2757 63.7838 65.4078 65.2102 64.0312 69.2041" stroke="#CC4659" stroke-width="0.348623" stroke-miterlimit="10"/>
<path d="M70.9141 29.7207C68.505 35.5974 62.9413 39.3059 56.8613 40.8464C54.1081 41.5311 51.1828 41.7593 48.4296 41.2458C47.6266 41.1317 46.8236 40.9035 46.0779 40.6753" stroke="#CC4659" stroke-width="0.348623" stroke-miterlimit="10"/>
<path d="M9.99938 31.7193L40.9728 27.6113L46.4219 67.5498L15.3911 71.7148L11.8348 45.2413L9.99938 31.7193Z" fill="#0073DE"/>
<path d="M67.7186 56.4256C63.9172 56.4256 60.8356 53.3603 60.8356 49.579C60.8356 45.7977 63.9172 42.7324 67.7186 42.7324C71.5199 42.7324 74.6016 45.7977 74.6016 49.579C74.6016 53.3603 71.5199 56.4256 67.7186 56.4256Z" fill="white"/>
<path d="M35.8691 35.8848L15.679 38.5663" stroke="#004484" stroke-width="0.348623" stroke-miterlimit="10"/>
<path d="M36.4434 40.8457L16.368 43.5273" stroke="#004484" stroke-width="0.348623" stroke-miterlimit="10"/>
<path d="M37.0156 45.8672L17.055 48.5488" stroke="#004484" stroke-width="0.348623" stroke-miterlimit="10"/>
<path d="M38.9082 50.7754L17.743 53.5711" stroke="#004484" stroke-width="0.348623" stroke-miterlimit="10"/>
<path d="M39.4824 55.7383L18.3746 58.591" stroke="#004484" stroke-width="0.348623" stroke-miterlimit="10"/>
<path d="M40.5723 60.7598L19.0629 63.6125" stroke="#004484" stroke-width="0.348623" stroke-miterlimit="10"/>
<path d="M69.7521 49.8607L66.3956 51.2168L66.8995 47.632L69.7521 49.8607Z" fill="#6C0110"/>
<path d="M39.8244 24.3008H63.2266V64.6386H31.9089V37.9369V31.7179L39.8244 24.3008Z" fill="#FFC7DB"/>
<path d="M50.5515 34.2844C49.9813 34.2844 49.5191 33.8246 49.5191 33.2575C49.5191 32.6903 49.9813 32.2305 50.5515 32.2305C51.1217 32.2305 51.584 32.6903 51.584 33.2575C51.584 33.8246 51.1217 34.2844 50.5515 34.2844Z" fill="#FF7381"/>
<path d="M41.6043 39.7063C41.0341 39.7063 40.5718 39.2465 40.5718 38.6793C40.5718 38.1121 41.0341 37.6523 41.6043 37.6523C42.1745 37.6523 42.6367 38.1121 42.6367 38.6793C42.6367 39.2465 42.1745 39.7063 41.6043 39.7063Z" fill="#FF7381"/>
<path d="M50.5515 55.3977C49.9813 55.3977 49.5191 54.9379 49.5191 54.3707C49.5191 53.8036 49.9813 53.3438 50.5515 53.3438C51.1217 53.3438 51.584 53.8036 51.584 54.3707C51.584 54.9379 51.1217 55.3977 50.5515 55.3977Z" fill="white"/>
<path d="M53.9929 40.4485C53.4227 40.4485 52.9605 39.9887 52.9605 39.4215C52.9605 38.8543 53.4227 38.3945 53.9929 38.3945C54.5631 38.3945 55.0254 38.8543 55.0254 39.4215C55.0254 39.9887 54.5631 40.4485 53.9929 40.4485Z" fill="white"/>
<path d="M38.7351 48.7786C38.1649 48.7786 37.7027 48.3188 37.7027 47.7516C37.7027 47.1844 38.1649 46.7246 38.7351 46.7246C39.3053 46.7246 39.7676 47.1844 39.7676 47.7516C39.7676 48.3188 39.3053 48.7786 38.7351 48.7786Z" fill="white"/>
<path d="M53.9929 50.6028C53.4227 50.6028 52.9605 50.143 52.9605 49.5758C52.9605 49.0086 53.4227 48.5488 53.9929 48.5488C54.5631 48.5488 55.0254 49.0086 55.0254 49.5758C55.0254 50.143 54.5631 50.6028 53.9929 50.6028Z" fill="#FF7381"/>
<path d="M40.0548 44.3851C43.8404 43.8146 46.8804 40.8477 47.454 37.025C47.454 36.9109 47.6261 36.9109 47.6261 37.025C48.1997 40.7907 51.1823 43.8146 55.0253 44.3851C55.14 44.3851 55.14 44.5563 55.0253 44.5563C51.2396 45.1268 48.1997 48.0937 47.6261 51.9164C47.6261 52.0305 47.454 52.0305 47.454 51.9164C46.8804 48.1507 43.8978 45.1268 40.0548 44.5563C39.9401 44.5563 39.9401 44.3851 40.0548 44.3851Z" fill="white"/>
<path d="M43.7273 54.3684C43.1571 54.3684 42.6949 53.9086 42.6949 53.3414C42.6949 52.7743 43.1571 52.3145 43.7273 52.3145C44.2975 52.3145 44.7598 52.7743 44.7598 53.3414C44.7598 53.9086 44.2975 54.3684 43.7273 54.3684Z" fill="white"/>
<path d="M39.8382 31.7008H31.9141L39.8382 24.3008V31.7008Z" fill="#FF7381"/>
</svg>
