<svg id="Sketches" xmlns="http://www.w3.org/2000/svg" viewBox="0 0 200 200"><defs><style>.cls-1{fill:#ff7381;}.cls-2{fill:#fff;}.cls-3{fill:#008ce3;}</style></defs><title>Target-Spot-Iloo</title><circle class="cls-1" cx="87.25" cy="112.77" r="72.3"/><circle class="cls-2" cx="87.25" cy="112.77" r="54.1"/><circle class="cls-1" cx="87.25" cy="112.77" r="33.39"/><circle class="cls-2" cx="87.25" cy="112.77" r="14.75"/><polygon class="cls-3" points="135.53 64.49 154.36 14.93 169.64 30.38 135.53 64.49"/><polygon class="cls-3" points="135.57 64.53 185.05 45.62 169.56 30.38 135.57 64.53"/><path d="M87.25,112.77c6.41-7.31,13-14.42,19.75-21.44,3.33-3.54,6.74-7,10.12-10.48l10.24-10.36,10.35-10.25c3.5-3.37,6.95-6.78,10.48-10.11,7-6.71,14.13-13.34,21.45-19.75-6.41,7.32-13,14.42-19.75,21.45-3.33,3.53-6.74,7-10.11,10.48L129.53,72.66,119.17,82.9c-3.49,3.38-6.94,6.79-10.48,10.12C101.67,99.73,94.56,106.36,87.25,112.77Z"/></svg>