<svg xmlns="http://www.w3.org/2000/svg" width="59.734" height="59.852" shape-rendering="geometricPrecision" viewBox="0 0 59.734 59.852" id="slack-logo"><g transform="translate(0 -.148)"><path fill="#36c5f0" d="m 21.902,0.148 c -3.299,0 -5.973,2.68 -5.973,5.985 a 5.979,5.979 0 0 0 5.973,5.985 h 5.974 V 6.133 A 5.98,5.98 0 0 0 21.902,0.148 m 0,15.96 H 5.973 C 2.674,16.108 0,18.788 0,22.094 c 0,3.305 2.674,5.985 5.973,5.985 h 15.93 c 3.298,0 5.973,-2.68 5.973,-5.985 0,-3.306 -2.675,-5.986 -5.974,-5.986"></path><path fill="#2eb67d" d="m 59.734,22.094 c 0,-3.306 -2.675,-5.986 -5.974,-5.986 -3.299,0 -5.973,2.68 -5.973,5.986 v 5.985 h 5.973 a 5.98,5.98 0 0 0 5.974,-5.985 m -15.929,0 V 6.133 A 5.98,5.98 0 0 0 37.831,0.148 c -3.299,0 -5.973,2.68 -5.973,5.985 v 15.96 c 0,3.307 2.674,5.987 5.973,5.987 a 5.98,5.98 0 0 0 5.974,-5.985"></path><path fill="#ecb22e" d="m 37.831,60 a 5.98,5.98 0 0 0 5.974,-5.985 5.98,5.98 0 0 0 -5.974,-5.985 h -5.973 v 5.985 c 0,3.305 2.674,5.985 5.973,5.985 m 0,-15.96 h 15.93 c 3.298,0 5.973,-2.68 5.973,-5.986 A 5.98,5.98 0 0 0 53.76,32.069 H 37.831 c -3.299,0 -5.973,2.68 -5.973,5.985 a 5.979,5.979 0 0 0 5.973,5.985"></path><path fill="#e01e5a" d="m 0,38.054 a 5.979,5.979 0 0 0 5.973,5.985 5.98,5.98 0 0 0 5.974,-5.985 V 32.069 H 5.973 C 2.674,32.069 0,34.749 0,38.054 m 15.929,0 v 15.96 c 0,3.306 2.674,5.986 5.973,5.986 a 5.98,5.98 0 0 0 5.974,-5.985 V 38.054 a 5.979,5.979 0 0 0 -5.974,-5.985 c -3.299,0 -5.973,2.68 -5.973,5.985"></path></g></svg>